<svg width="395" height="250" viewBox="0 0 395 250" fill="none" xmlns="http://www.w3.org/2000/svg">
<path fill-rule="evenodd" clip-rule="evenodd" d="M308 -63.482C308 19.351 332.36 78.678 422.732 117C513.103 155.321 600.418 120.352 688.009 140.4C775.599 160.448 775.599 289.595 858.086 369.071C940.572 448.547 1114.49 467.852 1255.91 387.221C1397.32 306.589 1461.43 118.325 1419.17 7.31897C1376.92 -103.687 1295.94 -205 905.236 -205C514.529 -205 308 -146.314 308 -63.482ZM-785.351 570.909C-755.666 648.24 -711.662 694.897 -613.561 698.286C-515.459 701.676 -446.476 637.739 -357.518 625.066C-268.56 612.392 -222.278 732.961 -116.788 777.598C-11.2999 822.236 157.987 777.931 261.112 651.976C364.24 526.021 356.62 327.29 277.392 238.798C198.162 150.307 86.257 84.743 -278.5 224.76C-643.257 364.777 -815.036 493.578 -785.351 570.909ZM-1036 -377.482C-1036 -294.649 -1011.64 -235.322 -921.268 -197C-830.897 -158.679 -743.582 -193.648 -655.991 -173.6C-568.401 -153.552 -568.401 -24.405 -485.914 55.071C-403.428 134.547 -229.509 153.852 -88.094 73.221C53.321 -7.41101 117.426 -195.675 75.173 -306.681C32.9189 -417.687 -48.057 -519 -438.764 -519C-829.471 -519 -1036 -460.314 -1036 -377.482Z" fill="#6B21A8"/>
</svg>
