<svg width="371" height="175" viewBox="0 0 371 175" fill="none" xmlns="http://www.w3.org/2000/svg">
<path fill-rule="evenodd" clip-rule="evenodd" d="M216.25 -97.8375C216.25 -42.9167 221.43 -3.58124 240.649 21.826C259.867 47.2333 278.436 24.049 297.063 37.3406C315.69 50.6323 315.69 136.259 333.232 188.954C350.773 241.649 387.759 254.448 417.833 200.987C447.906 147.527 461.539 22.7042 452.553 -50.8948C443.567 -124.495 426.347 -191.667 343.259 -191.667C260.17 -191.667 216.25 -152.757 216.25 -97.8375ZM-44.7874 124.037C-44.7874 178.958 -39.6068 218.294 -20.3883 243.701C-1.16984 269.108 17.3985 245.924 36.0258 259.216C54.653 272.507 54.653 358.134 72.1946 410.829C89.7362 463.524 126.722 476.323 156.796 422.862C186.869 369.402 200.502 244.579 191.516 170.98C182.53 97.3802 165.31 30.2083 82.2216 30.2083C-0.866692 30.2083 -44.7874 69.1177 -44.7874 124.037Z" fill="#6B21A8"/>
</svg>
