<svg width="32" height="31" viewBox="0 0 32 31" fill="none" xmlns="http://www.w3.org/2000/svg">
<g clip-path="url(#clip0_1_479)">
<path d="M29.7885 0H2.21146C1.26596 0 0.5 0.765958 0.5 1.71146V29.2898C0.5 30.234 1.26596 31 2.21146 31H17.0592V18.9953H13.0188V14.3168H17.0592V10.8668C17.0592 6.86263 19.5043 4.68229 23.077 4.68229C24.7885 4.68229 26.2584 4.81017 26.6873 4.867V9.052L24.2098 9.05329C22.2672 9.05329 21.8913 9.97683 21.8913 11.3305V14.3181H26.5245L25.9213 18.9965H21.8913V31H29.7911C30.734 31 31.5 30.234 31.5 29.2885V1.71146C31.5 0.765958 30.734 0 29.7885 0Z" fill="white"/>
</g>
<defs>
<clipPath id="clip0_1_479">
<rect width="31" height="31" fill="white" transform="translate(0.5)"/>
</clipPath>
</defs>
</svg>
