<svg width="32" height="31" viewBox="0 0 32 31" fill="none" xmlns="http://www.w3.org/2000/svg">
<g clip-path="url(#clip0_1_475)">
<path d="M16 0C7.44012 0 0.5 6.93883 0.5 15.5C0.5 22.0668 4.58554 27.6752 10.3515 29.9331C10.2159 28.7073 10.0932 26.8266 10.4058 25.4885C10.6874 24.2782 12.2232 17.7837 12.2232 17.7837C12.2232 17.7837 11.7595 16.855 11.7595 15.4819C11.7595 13.3274 13.0085 11.718 14.5637 11.718C15.885 11.718 16.5244 12.7113 16.5244 13.9009C16.5244 15.23 15.6784 17.2179 15.2405 19.0611C14.875 20.6034 16.0142 21.8628 17.5358 21.8628C20.2909 21.8628 22.408 18.9578 22.408 14.765C22.408 11.0541 19.742 8.45912 15.9341 8.45912C11.5244 8.45912 8.93587 11.7671 8.93587 15.1848C8.93587 16.5165 9.44867 17.9464 10.0893 18.7214C10.1442 18.7801 10.1829 18.852 10.2017 18.9301C10.2204 19.0082 10.2187 19.0898 10.1965 19.167L9.76642 20.9237C9.69796 21.2079 9.54167 21.2686 9.24717 21.1317C7.31096 20.2301 6.10067 17.4 6.10067 15.1267C6.10067 10.2378 9.65275 5.74662 16.3423 5.74662C21.7195 5.74662 25.898 9.579 25.898 14.6992C25.898 20.0415 22.5307 24.3402 17.8548 24.3402C16.2842 24.3402 14.8078 23.5251 14.3027 22.5602L13.3366 26.2454C12.9865 27.5926 12.0423 29.2808 11.4094 30.309C12.8612 30.7572 14.4022 31 16 31C24.5599 31 31.5 24.0599 31.5 15.5C31.5 6.93883 24.5599 0 16 0Z" fill="white"/>
</g>
<defs>
<clipPath id="clip0_1_475">
<rect width="31" height="31" fill="white" transform="translate(0.5)"/>
</clipPath>
</defs>
</svg>
