<svg width="80" height="80" viewBox="0 0 80 80" fill="none" xmlns="http://www.w3.org/2000/svg">
<circle cx="40" cy="40" r="40" fill="#27272A"/>
<g clip-path="url(#clip0_1_888)">
<path d="M62.6078 22.0201C62.4693 21.9358 62.3121 21.8874 62.1502 21.8792C61.9884 21.871 61.827 21.9033 61.6808 21.9731L54.0568 25.5641C52.7361 26.186 51.6033 27.1459 50.773 28.3466C49.9427 29.5472 49.4445 30.9459 49.3288 32.4011L49.1328 34.8371L45.1828 41.3981V38.5971C45.1828 38.5871 45.1768 38.5801 45.1768 38.5701C45.1756 38.4737 45.1601 38.378 45.1308 38.2861L43.2928 32.7721L47.0458 25.2681C47.1266 25.1042 47.1601 24.921 47.1426 24.739C47.1251 24.5571 47.0573 24.3836 46.9468 24.2381L41.0468 16.3711C40.9512 16.255 40.8311 16.1616 40.6951 16.0974C40.5591 16.0333 40.4106 16 40.2603 16C40.1099 16 39.9614 16.0333 39.8254 16.0974C39.6895 16.1616 39.5694 16.255 39.4738 16.3711L33.5728 24.2401C33.4632 24.3862 33.3965 24.56 33.38 24.7419C33.3636 24.9238 33.3982 25.1067 33.4798 25.2701L37.2328 32.7731L35.3948 38.2871C35.3651 38.3789 35.3493 38.4746 35.3478 38.5711V42.5221L29.2208 33.2231C29.2138 33.2131 29.2008 33.2061 29.1948 33.1971C29.1358 33.1151 29.0646 33.0426 28.9838 32.9821C28.9638 32.9691 28.9478 32.9521 28.9278 32.9401C28.9078 32.9271 28.9058 32.9201 28.8928 32.9131L25.2878 30.8281L23.7908 28.5571L21.6278 25.2701C21.507 25.087 21.3286 24.9496 21.1207 24.8797C20.9129 24.8097 20.6876 24.8113 20.4808 24.8841L16.6538 26.2271C16.5132 26.2771 16.3859 26.3583 16.2814 26.4648C16.177 26.5712 16.0981 26.7001 16.0508 26.8415C16.0035 26.983 15.9889 27.1333 16.0084 27.2812C16.0278 27.4291 16.0806 27.5706 16.1628 27.6951L18.8678 31.8021L20.3598 34.0721L20.8518 38.2091C20.8543 38.2226 20.8577 38.236 20.8618 38.2491C20.8658 38.2691 20.8708 38.2901 20.8768 38.3101C20.8991 38.4141 20.9382 38.5138 20.9928 38.6051C20.9998 38.6151 20.9998 38.6281 21.0068 38.6381C21.0138 38.6481 35.6308 60.8031 35.7018 60.8631C36.0532 61.7859 36.6768 62.5801 37.4899 63.1404C38.3031 63.7006 39.2673 64.0005 40.2548 64.0001C40.6548 64.0001 41.0548 63.9501 41.4448 63.8551C42.0722 63.7012 42.6628 63.4245 43.1826 63.0408C43.7023 62.6572 44.1409 62.1743 44.4728 61.6201L57.5528 39.9221L59.6178 38.6151C60.7022 37.9251 61.6125 36.9939 62.2778 35.8941C63.1227 34.4947 63.5334 32.876 63.4578 31.2431L63.0748 22.8231C63.0691 22.6611 63.0235 22.5031 62.942 22.363C62.8605 22.2229 62.7457 22.1051 62.6078 22.0201ZM55.4858 39.5441L53.9638 42.0711L48.9098 39.0231L50.4338 36.4961L55.4858 39.5441ZM37.3148 54.4461V39.5801H43.2148V44.6601L37.3148 54.4461ZM39.0078 33.6801H41.5228L42.8328 37.6131H37.6968L39.0078 33.6801ZM40.2648 26.7951C40.0041 26.7951 39.754 26.6915 39.5697 26.5072C39.3853 26.3228 39.2818 26.0728 39.2818 25.8121C39.2818 25.5514 39.3853 25.3014 39.5697 25.117C39.754 24.9327 40.0041 24.8291 40.2648 24.8291C40.5255 24.8291 40.7755 24.9327 40.9599 25.117C41.1442 25.3014 41.2478 25.5514 41.2478 25.8121C41.2478 26.0728 41.1442 26.3228 40.9599 26.5072C40.7755 26.6915 40.5255 26.7951 40.2648 26.7951ZM40.2648 18.6011L45.0148 24.9321L41.6248 31.7121H41.2478V28.5821C41.9039 28.3502 42.457 27.8938 42.8091 27.2936C43.1613 26.6933 43.29 25.9879 43.1723 25.302C43.0547 24.6161 42.6983 23.9939 42.1663 23.5453C41.6342 23.0967 40.9607 22.8507 40.2648 22.8507C39.5688 22.8507 38.8953 23.0967 38.3633 23.5453C37.8312 23.9939 37.4749 24.6161 37.3572 25.302C37.2396 25.9879 37.3682 26.6933 37.7204 27.2936C38.0726 27.8938 38.6256 28.3502 39.2818 28.5821V31.7121H38.9058L35.5158 24.9321L40.2658 18.6011H40.2648ZM26.5298 33.8181L26.2398 34.0081L22.6188 36.3951L22.2858 33.6081C22.2674 33.4566 22.214 33.3114 22.1298 33.1841L21.0488 31.5421L22.6898 30.4601L23.7708 32.1021C23.855 32.2295 23.9676 32.3356 24.0998 32.4121L26.5298 33.8181ZM20.4078 26.9921L21.6078 28.8141L19.9658 29.8961L18.4908 27.6641L20.4078 26.9921ZM25.6568 36.7471L28.1148 35.1231L35.3478 46.0951V56.8211L23.1928 38.3711L25.6568 36.7471ZM42.7918 60.5981C42.5916 60.9298 42.3281 61.2189 42.0163 61.4487C41.7044 61.6786 41.3504 61.8448 40.9743 61.9379C40.5982 62.0309 40.2075 62.049 39.8244 61.991C39.4414 61.9331 39.0735 61.8002 38.7418 61.6001C38.4101 61.4 38.121 61.1364 37.8911 60.8246C37.6612 60.5128 37.495 60.1587 37.402 59.7826C37.3089 59.4065 37.2909 59.0158 37.3488 58.6328C37.4068 58.2497 37.5396 57.8818 37.7398 57.5501L45.1648 45.2351H45.1818V45.2081L47.8938 40.7091L50.4208 42.2351L52.9508 43.7551L42.7918 60.5981ZM60.5988 34.8741C60.0916 35.7122 59.3976 36.4217 58.5708 36.9471L56.8238 38.0541L53.9718 36.3371L51.1198 34.6201L51.2818 32.5551C51.3702 31.4457 51.75 30.3794 52.3829 29.464C53.0157 28.5486 53.8792 27.8166 54.8858 27.3421L61.1798 24.3801L61.3048 27.1201C61.2063 27.1097 61.1068 27.1144 61.0098 27.1341L58.6278 27.7241C57.5412 27.9895 56.5507 28.5539 55.7686 29.3535C54.9865 30.1532 54.444 31.1559 54.2028 32.2481C54.1458 32.5026 54.1922 32.7693 54.3318 32.9895C54.4714 33.2098 54.6928 33.3656 54.9473 33.4226C55.2017 33.4796 55.4685 33.4332 55.6887 33.2936C55.909 33.154 56.0648 32.9326 56.1218 32.6781C56.2847 31.9437 56.6499 31.2694 57.1759 30.7317C57.702 30.1939 58.3681 29.8141 59.0988 29.6351L61.3958 29.0651L61.4988 31.3271C61.5563 32.5727 61.2431 33.8065 60.5988 34.8741Z" fill="#2BD0D0"/>
</g>
<defs>
<clipPath id="clip0_1_888">
<rect width="48" height="48" fill="white" transform="translate(16 16)"/>
</clipPath>
</defs>
</svg>
