<svg width="32" height="31" viewBox="0 0 32 31" fill="none" xmlns="http://www.w3.org/2000/svg">
<g clip-path="url(#clip0_1_473)">
<path d="M16 2.79387C20.1385 2.79387 20.6293 2.80938 22.2646 2.88429C26.4651 3.07546 28.4271 5.0685 28.6183 9.238C28.6932 10.872 28.7074 11.3628 28.7074 15.5013C28.7074 19.6411 28.6919 20.1306 28.6183 21.7646C28.4258 25.9302 26.469 27.9271 22.2646 28.1183C20.6293 28.1932 20.1411 28.2087 16 28.2087C11.8615 28.2087 11.3707 28.1932 9.73671 28.1183C5.52588 27.9258 3.57417 25.9237 3.383 21.7633C3.30808 20.1293 3.29258 19.6398 3.29258 15.5C3.29258 11.3615 3.30938 10.872 3.383 9.23671C3.57546 5.0685 5.53233 3.07417 9.73671 2.883C11.372 2.80938 11.8615 2.79387 16 2.79387ZM16 0C11.7905 0 11.2635 0.0180833 9.61012 0.093C3.98104 0.351333 0.852625 3.47458 0.594292 9.10883C0.518083 10.7635 0.5 11.2905 0.5 15.5C0.5 19.7095 0.518083 20.2378 0.593 21.8912C0.851333 27.5202 3.97458 30.6487 9.60883 30.907C11.2635 30.9819 11.7905 31 16 31C20.2095 31 20.7378 30.9819 22.3912 30.907C28.0151 30.6487 31.1512 27.5254 31.4057 21.8912C31.4819 20.2378 31.5 19.7095 31.5 15.5C31.5 11.2905 31.4819 10.7635 31.407 9.11012C31.1538 3.48621 28.0267 0.352625 22.3925 0.0942917C20.7378 0.0180833 20.2095 0 16 0ZM16 7.54075C14.9548 7.54075 13.9198 7.74662 12.9541 8.14661C11.9885 8.5466 11.111 9.13288 10.372 9.87196C9.63288 10.611 9.0466 11.4885 8.64661 12.4541C8.24662 13.4198 8.04075 14.4548 8.04075 15.5C8.04075 16.5452 8.24662 17.5802 8.64661 18.5459C9.0466 19.5115 9.63288 20.389 10.372 21.128C11.111 21.8671 11.9885 22.4534 12.9541 22.8534C13.9198 23.2534 14.9548 23.4592 16 23.4592C18.1109 23.4592 20.1354 22.6207 21.628 21.128C23.1207 19.6354 23.9592 17.6109 23.9592 15.5C23.9592 13.3891 23.1207 11.3646 21.628 9.87196C20.1354 8.37931 18.1109 7.54075 16 7.54075ZM16 20.6667C14.6297 20.6667 13.3156 20.1223 12.3466 19.1534C11.3777 18.1844 10.8333 16.8703 10.8333 15.5C10.8333 14.1297 11.3777 12.8156 12.3466 11.8466C13.3156 10.8777 14.6297 10.3333 16 10.3333C17.3703 10.3333 18.6844 10.8777 19.6534 11.8466C20.6223 12.8156 21.1667 14.1297 21.1667 15.5C21.1667 16.8703 20.6223 18.1844 19.6534 19.1534C18.6844 20.1223 17.3703 20.6667 16 20.6667ZM24.2744 5.36688C24.0301 5.36688 23.7881 5.415 23.5624 5.50851C23.3366 5.60201 23.1315 5.73907 22.9587 5.91185C22.786 6.08462 22.6489 6.28974 22.5554 6.51548C22.4619 6.74123 22.4138 6.98318 22.4138 7.22752C22.4138 7.47186 22.4619 7.71382 22.5554 7.93956C22.6489 8.1653 22.786 8.37042 22.9587 8.5432C23.1315 8.71597 23.3366 8.85303 23.5624 8.94653C23.7881 9.04004 24.0301 9.08817 24.2744 9.08817C24.7679 9.08817 25.2412 8.89213 25.5901 8.5432C25.939 8.19426 26.1351 7.72099 26.1351 7.22752C26.1351 6.73405 25.939 6.26078 25.5901 5.91185C25.2412 5.56291 24.7679 5.36688 24.2744 5.36688Z" fill="white"/>
</g>
<defs>
<clipPath id="clip0_1_473">
<rect width="31" height="31" fill="white" transform="translate(0.5)"/>
</clipPath>
</defs>
</svg>
