<svg width="32" height="27" viewBox="0 0 32 27" fill="none" xmlns="http://www.w3.org/2000/svg">
<g clip-path="url(#clip0_1_477)">
<path d="M31.5 3.88627C30.3393 4.4007 29.108 4.73814 27.8472 4.88731C29.1758 4.09317 30.1699 2.84244 30.6436 1.36881C29.3951 2.10969 28.029 2.63172 26.6046 2.91236C26.0097 2.27737 25.2907 1.77141 24.4921 1.4259C23.6935 1.08038 22.8324 0.902678 21.9623 0.903814C17.8561 0.903814 14.8388 4.7349 15.7662 8.71194C13.2376 8.58537 10.7639 7.92841 8.5057 6.78373C6.24749 5.63905 4.25526 4.03223 2.65838 2.06761C1.84525 3.46783 1.59606 5.12521 1.9615 6.70263C2.32694 8.28005 3.27956 9.65901 4.62558 10.559C3.61616 10.5272 2.629 10.2543 1.74646 9.76336C1.67671 12.7096 3.78858 15.4661 6.84725 16.0796C5.91045 16.334 4.92791 16.3711 3.97458 16.1881C4.38083 17.4518 5.17199 18.557 6.23738 19.3488C7.30276 20.1407 8.58905 20.5797 9.91625 20.6043C7.25051 22.6954 3.86388 23.6431 0.5 23.2393C3.4082 25.1078 6.79278 26.0997 10.2495 26.0965C22.0579 26.0965 28.7294 16.1235 28.3264 7.17873C29.5712 6.27821 30.6458 5.16334 31.5 3.88627Z" fill="white"/>
</g>
<defs>
<clipPath id="clip0_1_477">
<rect width="31" height="25.8333" fill="white" transform="translate(0.5 0.583252)"/>
</clipPath>
</defs>
</svg>
