<svg width="80" height="80" viewBox="0 0 80 80" fill="none" xmlns="http://www.w3.org/2000/svg">
<circle cx="40" cy="40" r="40" fill="#27272A"/>
<g clip-path="url(#clip0_1_880)">
<path d="M39.968 20C50.978 20 59.937 28.958 59.937 39.968C59.937 50.978 50.979 59.937 39.968 59.937C28.958 59.937 20 50.979 20 39.968C20 28.958 28.958 20 39.968 20ZM47.773 55.579C42.91 53.177 37.027 53.177 32.164 55.579C34.584 56.8012 37.2569 57.439 39.968 57.441C42.6795 57.4391 45.3527 56.8014 47.773 55.579ZM41.217 22.559V26.24H38.72V22.56C35.262 22.8037 31.9561 24.077 29.228 26.216L32.026 29.013L30.261 30.778L27.373 27.89C24.8499 30.5161 23.2138 33.8673 22.695 37.472H27.488V39.969H22.496C22.496 45.774 25.353 50.912 29.723 54.091C35.94 50.377 43.997 50.377 50.213 54.091C54.583 50.912 57.441 45.774 57.441 39.968H52.449V37.472H57.242C56.7232 33.8673 55.0871 30.5161 52.564 27.89L49.676 30.778L47.911 29.013L50.709 26.216C47.9811 24.0767 44.6751 22.803 41.217 22.559ZM38.78 30.851C39.112 29.817 40.825 29.817 41.157 30.851C41.792 32.829 44.961 42.806 44.961 44.961C44.9597 46.2847 44.4332 47.5538 43.4971 48.4898C42.5609 49.4257 41.2917 49.9519 39.968 49.953C38.6444 49.9517 37.3755 49.4253 36.4396 48.4894C35.5037 47.5535 34.9773 46.2846 34.976 44.961C34.976 42.806 38.146 32.829 38.78 30.851ZM39.968 35.418C38.735 39.465 37.472 43.94 37.472 44.961C37.4731 45.6227 37.7364 46.2569 38.2042 46.7248C38.6721 47.1926 39.3063 47.4559 39.968 47.457C40.6298 47.4562 41.2643 47.193 41.7324 46.7251C42.2005 46.2572 42.4639 45.6228 42.465 44.961C42.465 43.941 41.202 39.465 39.968 35.418Z" fill="#2BD0D0"/>
</g>
<defs>
<clipPath id="clip0_1_880">
<rect width="40" height="40" fill="white" transform="translate(20 20)"/>
</clipPath>
</defs>
</svg>
